<svg width="914" height="400" fill="none" xmlns="http://www.w3.org/2000/svg">
  <path fill="#fff" d="M0 0h914v400H0z"/>
  <path d="M415.486 210.248v-4.375a8.52 8.52 0 002.584 1.504 8.407 8.407 0 002.816.492 6.17 6.17 0 001.449-.15c.42-.101.766-.237 1.039-.41.283-.183.492-.392.629-.629.137-.246.205-.511.205-.793a1.7 1.7 0 00-.328-1.026 3.518 3.518 0 00-.902-.834 9.035 9.035 0 00-1.34-.738 48 48 0 00-1.682-.725c-1.531-.638-2.675-1.417-3.431-2.337-.748-.921-1.121-2.033-1.121-3.336 0-1.021.205-1.896.615-2.625a5.223 5.223 0 011.668-1.819c.711-.474 1.531-.82 2.461-1.039a12.357 12.357 0 012.953-.342c1.021 0 1.923.064 2.707.192.793.118 1.522.305 2.187.56v4.088a6.444 6.444 0 00-1.08-.601 7.635 7.635 0 00-1.189-.424 8.41 8.41 0 00-1.231-.26 8.447 8.447 0 00-1.148-.082c-.501 0-.957.05-1.367.15-.41.092-.757.224-1.039.397a1.977 1.977 0 00-.657.629 1.448 1.448 0 00-.232.806c0 .329.087.625.26.889.173.255.419.501.738.738.319.228.706.456 1.162.684.456.219.971.447 1.545.684.784.328 1.486.679 2.106 1.052a7.35 7.35 0 011.613 1.244c.446.465.788.999 1.025 1.6.237.593.356 1.285.356 2.078 0 1.094-.21 2.015-.629 2.762a5.07 5.07 0 01-1.682 1.805c-.711.455-1.54.783-2.488.984-.939.201-1.932.301-2.981.301-1.075 0-2.1-.091-3.076-.274-.966-.182-1.804-.455-2.515-.82zm33.004.752h-4.43v-7.984h-8.121V211h-4.416v-19.605h4.416v7.82h8.121v-7.82h4.43V211zm7.599 0v-19.605h5.154c3.354 0 5.888.806 7.602 2.419 1.713 1.605 2.57 3.979 2.57 7.124 0 1.513-.241 2.889-.725 4.128a8.78 8.78 0 01-2.064 3.186c-.902.875-1.996 1.554-3.281 2.037-1.285.474-2.735.711-4.348.711h-4.908zm1.818-17.938v16.284h3.008c1.349 0 2.552-.183 3.609-.547 1.067-.365 1.969-.898 2.707-1.6.739-.711 1.299-1.586 1.682-2.625.392-1.039.588-2.233.588-3.582 0-5.286-2.794-7.93-8.381-7.93h-3.213zm22.313 18.266c-1.039 0-1.973-.173-2.802-.519a6.034 6.034 0 01-2.106-1.463 6.55 6.55 0 01-1.34-2.284c-.31-.884-.465-1.863-.465-2.939 0-1.167.164-2.21.493-3.131.328-.92.793-1.7 1.394-2.338a6.016 6.016 0 012.201-1.476c.857-.338 1.814-.506 2.871-.506 1.012 0 1.924.168 2.735.506a5.507 5.507 0 012.064 1.435c.565.629.998 1.395 1.299 2.297.301.902.451 1.928.451 3.076 0 1.094-.159 2.092-.478 2.994a6.671 6.671 0 01-1.34 2.311 5.964 5.964 0 01-2.133 1.504c-.838.355-1.786.533-2.844.533zm.137-13.139c-.766 0-1.458.133-2.078.397a4.39 4.39 0 00-1.6 1.162c-.437.501-.774 1.121-1.011 1.859-.237.73-.356 1.559-.356 2.489 0 .875.119 1.663.356 2.365a5.4 5.4 0 00.998 1.805c.437.501.966.888 1.586 1.162.619.264 1.312.396 2.078.396.784 0 1.476-.127 2.078-.383a4.205 4.205 0 001.531-1.134c.419-.502.734-1.112.943-1.832.219-.72.329-1.541.329-2.461 0-1.887-.42-3.327-1.258-4.321-.839-1.002-2.037-1.504-3.596-1.504zm18.936 12.182c-1.039.629-2.297.953-3.773.971-1.003.009-1.905-.164-2.707-.52a5.966 5.966 0 01-2.051-1.476 6.688 6.688 0 01-1.299-2.242 8.525 8.525 0 01-.451-2.817c0-1.048.159-2.032.478-2.953a6.988 6.988 0 011.395-2.42 6.557 6.557 0 012.242-1.641c.884-.401 1.896-.601 3.035-.601 1.158 0 2.215.223 3.172.67v1.859c-1.021-.674-2.124-1.012-3.308-1.012-.83 0-1.568.16-2.215.479a4.73 4.73 0 00-1.641 1.285 5.841 5.841 0 00-1.012 1.901 7.56 7.56 0 00-.341 2.296c0 .748.095 1.463.287 2.147.2.683.501 1.29.902 1.818.41.52.925.934 1.545 1.244.62.31 1.349.465 2.187.465a5.822 5.822 0 003.555-1.176v1.723z" fill="#333"/>
</svg>
